<?xml version="1.0" standalone="no"?>
<!DOCTYPE svg PUBLIC "-//W3C//DTD SVG 20010904//EN"
 "http://www.w3.org/TR/2001/REC-SVG-20010904/DTD/svg10.dtd">
<svg version="1.0" xmlns="http://www.w3.org/2000/svg"
 width="112.000000pt" height="110.000000pt" viewBox="0 0 112.000000 110.000000"
 preserveAspectRatio="xMidYMid meet">

<g transform="translate(0.000000,110.000000) scale(0.100000,-0.100000)"
fill="#000000" stroke="none">
<path d="M292 929 c-48 -14 -106 -77 -120 -130 -6 -24 -14 -153 -17 -285 -5
-222 -5 -243 12 -259 45 -46 215 -85 368 -85 161 0 352 47 376 92 16 30 2 502
-17 555 -18 50 -69 98 -121 112 -47 13 -435 13 -481 0z m508 -32 c30 -16 51
-37 67 -67 22 -41 23 -54 23 -240 0 -224 0 -224 -75 -224 -39 -1 -48 4 -79 40
-43 51 -86 64 -205 64 -109 0 -151 -15 -203 -71 -33 -36 -41 -40 -77 -36 -71
7 -71 7 -71 216 0 204 6 240 47 284 50 53 69 56 309 57 212 0 223 -1 264 -23z
m-146 -507 c30 -30 3 -45 -89 -49 -117 -4 -157 4 -153 32 4 29 35 36 140 34
62 -1 92 -6 102 -17z"/>
<path d="M396 668 c-9 -12 -16 -34 -16 -49 0 -35 32 -74 54 -66 39 15 44 107
6 127 -25 14 -27 13 -44 -12z"/>
<path d="M646 668 c-9 -12 -16 -34 -16 -48 0 -30 25 -70 45 -70 20 0 45 40 45
70 0 30 -25 70 -45 70 -8 0 -21 -10 -29 -22z"/>
<path d="M445 380 c26 -11 154 -11 180 0 13 5 -20 9 -90 9 -70 0 -103 -4 -90
-9z"/>
</g>
</svg>
